<?xml version="1.0" standalone="no"?><!DOCTYPE svg PUBLIC "-//W3C//DTD SVG 1.1//EN" "http://www.w3.org/Graphics/SVG/1.1/DTD/svg11.dtd"><svg t="1597197405299" class="icon" viewBox="0 0 1024 1024" version="1.1" xmlns="http://www.w3.org/2000/svg" p-id="7801" xmlns:xlink="http://www.w3.org/1999/xlink" width="200" height="200"><defs><style type="text/css"></style></defs><path d="M0 512a512 512 0 1 0 1024 0A512 512 0 1 0 0 512z" fill="#ffffff" p-id="7802" data-spm-anchor-id="a313x.7781069.0.i22" class="selected"></path><path d="M554.95 164.304H207.253c-42.952 0-78.401 34.77-78.401 78.402V477.23c0 42.951 34.77 78.401 78.4 78.401h25.226l56.586 73.63 56.586-73.63h208.617c42.951 0 78.401-34.77 78.401-78.401V242.706c0.684-43.634-34.768-78.402-77.72-78.402z" fill="#7068e1" p-id="7803" data-spm-anchor-id="a313x.7781069.0.i16" class=""></path><path d="M844.015 422.007H496.319c-42.952 0-78.401 34.77-78.401 78.402v234.524c0 42.951 34.77 78.401 78.4 78.401h25.227l56.585 73.63 56.586-73.63h208.617c42.952 0 78.401-34.77 78.401-78.401V500.409c0.684-43.632-34.768-78.402-77.72-78.402z" fill="#5568e1" p-id="7804" data-spm-anchor-id="a313x.7781069.0.i17" class=""></path><path d="M497 629.261a46.36 46.36 0 1 0 92.72 0 46.36 46.36 0 1 0-92.72 0zM623.808 629.261a46.36 46.36 0 1 0 92.72 0 46.36 46.36 0 1 0-92.72 0zM750.613 629.261a46.36 46.36 0 1 0 92.72 0 46.36 46.36 0 1 0-92.72 0z" fill="#ffffff" p-id="7805" data-spm-anchor-id="a313x.7781069.0.i21" class=""></path></svg>